<svg xmlns="http://www.w3.org/2000/svg" viewBox="-131.6 -1412.0 3941.2 1444.4" width="175" height="64" role="img" aria-label="Jaxn Consulting"><title>Jaxn Consulting</title><path fill="#1C211E" d="M718.5 -178.5 L720.1 -162.3 L722.6 -147.5 L724.3 -140.0 L728.6 -125.0 L733.7 -111.4 L736.7 -104.5 L743.5 -91.1 L751.6 -77.9 L755.9 -71.7 L765.0 -60.0 L775.7 -48.1 L781.2 -42.6 L792.8 -32.2 L805.8 -21.9 L812.4 -17.2 L825.7 -8.7 L840.2 -0.7 L855.0 6.2 L862.7 9.3 L878.0 14.9 L894.6 19.7 L919.7 25.1 L937.6 27.7 L964.8 30.0 L984.1 30.4 L1006.4 29.8 L1028.6 28.1 L1043.4 26.3 L1064.7 22.7 L1085.9 18.0 L1106.8 12.1 L1127.2 5.0 L1147.3 -3.2 L1162.5 -10.3 L1179.2 -19.3 L1195.1 -29.0 L1210.1 -39.6 L1223.6 -50.3 L1223.8 2.3 L1225.0 5.7 L1227.1 8.5 L1229.9 10.6 L1234.4 11.9 L1764.3 11.8 L1772.5 9.3 L1776.4 7.5 L1780.4 4.2 L1783.4 0.2 L1785.2 -4.8 L1785.5 -10.3 L1784.3 -15.7 L1781.6 -20.2 L1779.6 -22.2 L1777.1 -24.0 L1769.7 -27.3 L1722.8 -42.4 L1714.4 -45.5 L1704.7 -50.0 L1695.0 -56.0 L1690.4 -59.9 L1686.8 -63.8 L1683.9 -67.8 L1681.2 -73.1 L1680.2 -77.2 L1680.0 -82.1 L1680.6 -87.9 L1681.5 -92.4 L1683.8 -99.8 L1687.3 -108.1 L1691.9 -117.2 L1697.7 -127.0 L1861.7 -380.7 L2042.8 -97.8 L2051.2 -82.6 L2054.1 -76.0 L2056.5 -68.5 L2057.3 -63.8 L2057.4 -60.0 L2057.0 -57.0 L2055.7 -53.7 L2053.7 -50.7 L2051.7 -48.7 L2048.1 -46.2 L2044.7 -44.5 L2038.9 -42.6 L2033.6 -41.6 L1956.6 -29.8 L1950.1 -27.9 L1945.2 -25.2 L1941.3 -21.2 L1938.7 -16.5 L1937.5 -11.3 L1937.7 -5.7 L1939.3 -0.8 L1942.2 3.6 L1946.3 7.3 L1951.4 9.9 L1957.0 11.5 L1963.6 12.0 L2863.6 12.0 L2870.5 11.1 L2875.3 9.2 L2878.9 6.4 L2882.1 2.0 L2883.6 -2.3 L2884.0 -7.3 L2882.9 -12.5 L2880.7 -16.8 L2877.3 -20.4 L2872.2 -23.5 L2865.7 -25.6 L2809.1 -35.4 L2805.0 -36.5 L2800.7 -38.7 L2798.0 -41.5 L2796.0 -45.9 L2795.0 -51.1 L2794.8 -698.7 L2819.4 -720.4 L2841.8 -738.3 L2851.2 -745.0 L2863.3 -753.0 L2875.1 -760.0 L2883.6 -764.5 L2892.1 -768.4 L2900.5 -771.7 L2909.0 -774.5 L2920.2 -777.4 L2928.7 -778.9 L2937.1 -779.9 L2945.6 -780.4 L2956.8 -780.2 L2964.7 -779.5 L2975.8 -777.5 L2982.6 -775.7 L2992.1 -772.1 L2998.0 -769.2 L3006.1 -764.0 L3013.5 -757.8 L3018.0 -753.1 L3022.2 -747.9 L3028.2 -738.9 L3033.8 -728.5 L3037.4 -720.7 L3042.3 -707.8 L3045.3 -698.4 L3050.8 -677.7 L3055.3 -654.4 L3058.1 -635.3 L3124.1 -57.3 L3124.0 -50.3 L3122.4 -44.8 L3121.0 -42.3 L3119.4 -40.5 L3114.8 -37.6 L3107.8 -35.6 L3049.4 -25.9 L3042.8 -23.9 L3037.2 -21.0 L3034.4 -18.7 L3032.0 -15.9 L3030.4 -12.9 L3029.4 -10.0 L3029.0 -6.9 L3029.3 -2.9 L3030.4 0.7 L3032.0 3.7 L3034.9 7.1 L3039.2 9.8 L3043.7 11.4 L3049.3 12.0 L3460.7 12.0 L3464.7 11.6 L3468.4 10.6 L3471.4 9.2 L3474.3 7.2 L3476.6 4.7 L3478.6 1.5 L3479.8 -1.8 L3480.4 -5.4 L3479.9 -10.4 L3478.0 -15.2 L3474.9 -19.3 L3470.9 -22.2 L3467.6 -23.7 L3463.8 -24.8 L3411.4 -34.0 L3405.7 -35.7 L3401.8 -37.8 L3398.9 -40.8 L3395.7 -46.7 L3393.5 -53.7 L3391.9 -62.3 L3315.7 -673.0 L3310.8 -702.4 L3304.7 -729.8 L3297.5 -755.3 L3289.0 -778.8 L3282.7 -793.4 L3275.9 -807.2 L3268.5 -820.1 L3260.5 -832.1 L3252.0 -843.2 L3242.9 -853.4 L3233.2 -862.8 L3222.8 -871.4 L3211.9 -879.0 L3200.3 -885.9 L3188.2 -891.8 L3175.5 -896.9 L3162.3 -901.1 L3148.5 -904.5 L3134.2 -907.0 L3112.2 -909.2 L3090.9 -909.5 L3073.9 -908.4 L3056.7 -906.0 L3039.2 -902.4 L3021.5 -897.4 L3003.6 -891.1 L2985.4 -883.6 L2967.1 -874.8 L2948.4 -864.8 L2929.2 -853.3 L2909.1 -840.2 L2888.3 -825.7 L2866.8 -809.8 L2844.5 -792.3 L2821.4 -773.3 L2794.8 -750.4 L2794.6 -887.7 L2793.9 -891.4 L2792.7 -894.8 L2791.0 -897.9 L2788.8 -900.9 L2786.3 -903.3 L2783.4 -905.2 L2780.4 -906.6 L2776.8 -907.6 L2772.6 -908.0 L2766.0 -907.7 L2761.1 -907.0 L2754.2 -905.3 L2462.0 -824.0 L2457.2 -822.3 L2453.2 -820.2 L2450.3 -818.0 L2447.9 -815.2 L2446.0 -811.6 L2445.0 -807.4 L2444.9 -803.0 L2445.7 -798.8 L2447.5 -794.8 L2450.1 -791.5 L2453.2 -788.9 L2457.2 -787.0 L2461.1 -786.0 L2465.1 -785.6 L2532.0 -785.5 L2532.0 -53.6 L2531.2 -46.8 L2530.2 -43.7 L2528.9 -41.2 L2527.7 -39.7 L2525.8 -38.2 L2520.8 -36.1 L2487.5 -30.0 L2406.2 -30.0 L2402.1 -31.0 L2396.8 -33.0 L2386.6 -38.5 L2375.5 -46.8 L2364.8 -56.8 L2355.2 -67.3 L2347.2 -77.1 L2337.0 -90.9 L2328.6 -103.2 L2088.5 -475.5 L2261.7 -754.5 L2279.7 -781.8 L2289.3 -795.1 L2298.3 -806.7 L2306.6 -816.5 L2312.9 -822.5 L2322.8 -829.9 L2331.3 -834.8 L2344.2 -840.6 L2355.1 -844.4 L2367.0 -847.6 L2383.7 -851.0 L2389.4 -852.7 L2395.3 -855.8 L2397.7 -857.8 L2399.8 -860.3 L2402.1 -864.7 L2403.0 -869.2 L2402.6 -874.2 L2400.8 -879.0 L2397.8 -883.0 L2393.6 -886.4 L2388.7 -888.5 L2383.5 -889.5 L2140.8 -889.6 L2135.5 -889.0 L2131.0 -887.6 L2126.8 -885.3 L2123.8 -882.4 L2121.6 -879.0 L2120.3 -875.3 L2119.8 -871.1 L2120.2 -867.0 L2121.3 -863.5 L2123.3 -860.1 L2126.1 -857.1 L2129.6 -854.7 L2133.7 -852.8 L2138.8 -851.4 L2192.1 -842.0 L2196.6 -840.6 L2202.7 -838.0 L2206.3 -835.9 L2211.0 -832.2 L2215.1 -827.8 L2218.5 -822.6 L2221.5 -816.4 L2223.1 -811.7 L2224.7 -804.4 L2225.3 -799.2 L2225.2 -791.0 L2224.6 -785.1 L2221.8 -772.4 L2218.3 -762.1 L2211.7 -747.4 L2205.3 -735.7 L2065.8 -509.9 L1881.0 -800.7 L1876.8 -808.5 L1874.5 -815.0 L1873.9 -818.2 L1873.8 -822.0 L1874.5 -825.2 L1875.4 -827.5 L1877.4 -830.8 L1879.7 -833.6 L1883.0 -836.2 L1886.1 -837.8 L1891.9 -839.5 L1955.2 -850.6 L1962.1 -852.8 L1967.3 -855.7 L1970.3 -858.7 L1972.5 -862.3 L1973.8 -866.3 L1974.2 -870.9 L1973.5 -875.4 L1971.9 -879.4 L1969.5 -882.8 L1966.0 -885.8 L1963.0 -887.4 L1960.0 -888.6 L1956.3 -889.3 L1952.5 -889.6 L1531.7 -889.6 L1525.7 -889.1 L1520.2 -887.6 L1515.6 -885.4 L1512.0 -882.5 L1509.5 -879.3 L1507.7 -875.5 L1506.8 -871.4 L1506.6 -866.8 L1507.3 -862.8 L1508.9 -858.8 L1511.3 -855.0 L1514.2 -851.7 L1518.1 -848.7 L1522.9 -846.4 L1528.2 -845.0 L1539.2 -843.5 L1545.9 -841.7 L1555.8 -837.9 L1564.6 -833.4 L1572.9 -827.8 L1579.7 -821.8 L1586.3 -814.6 L1592.9 -806.0 L1839.5 -415.5 L1654.1 -133.2 L1637.2 -108.9 L1621.4 -88.0 L1611.4 -76.2 L1601.4 -65.9 L1591.1 -57.1 L1580.6 -49.7 L1570.8 -44.2 L1558.8 -38.9 L1547.5 -35.2 L1534.2 -32.0 L1521.1 -32.1 L1516.3 -32.7 L1509.6 -34.8 L1503.5 -38.1 L1499.8 -41.0 L1496.6 -44.2 L1492.5 -49.8 L1489.6 -56.2 L1487.9 -63.1 L1487.6 -68.2 L1487.6 -635.2 L1487.0 -656.6 L1485.2 -677.1 L1482.3 -696.8 L1478.2 -715.8 L1472.8 -734.0 L1466.3 -751.4 L1458.6 -768.1 L1449.9 -783.5 L1439.8 -798.5 L1434.0 -806.1 L1422.4 -819.5 L1415.7 -826.4 L1402.1 -838.9 L1394.8 -844.8 L1379.7 -855.6 L1371.2 -861.0 L1354.4 -870.3 L1335.6 -879.0 L1316.6 -886.3 L1306.1 -889.7 L1285.3 -895.5 L1274.0 -898.2 L1262.7 -900.5 L1239.7 -904.4 L1227.3 -906.0 L1202.5 -908.4 L1189.3 -909.3 L1162.7 -910.3 L1139.0 -910.3 L1119.0 -909.9 L1090.4 -908.3 L1071.8 -906.7 L1053.8 -904.5 L1036.1 -901.9 L1011.0 -897.2 L994.7 -893.4 L979.0 -889.1 L963.8 -884.4 L949.1 -879.2 L934.8 -873.4 L908.3 -861.3 L884.3 -848.2 L867.3 -837.5 L857.0 -830.2 L847.1 -822.6 L837.8 -814.6 L828.9 -806.4 L816.6 -793.3 L809.5 -784.6 L802.6 -775.5 L796.5 -766.5 L790.9 -757.5 L786.0 -748.4 L781.6 -739.2 L777.9 -729.9 L774.7 -720.6 L772.2 -711.3 L770.3 -701.9 L769.1 -692.8 L768.5 -683.3 L768.5 -674.0 L769.2 -662.1 L770.2 -653.9 L772.3 -643.1 L774.4 -635.7 L778.0 -626.0 L781.3 -619.3 L784.8 -613.3 L790.9 -605.1 L797.9 -597.7 L807.6 -589.7 L815.8 -584.4 L824.4 -580.0 L833.9 -576.4 L843.4 -573.7 L856.3 -571.6 L867.0 -570.8 L880.3 -571.1 L894.4 -572.4 L907.9 -575.0 L920.9 -578.7 L932.8 -583.5 L941.0 -587.6 L951.9 -594.3 L959.3 -599.8 L969.0 -608.4 L975.4 -615.0 L983.4 -624.8 L988.5 -632.1 L994.6 -642.8 L998.3 -650.8 L1002.5 -662.4 L1005.6 -675.2 L1006.9 -683.7 L1007.7 -692.5 L1008.0 -782.3 L1008.7 -793.6 L1011.0 -804.4 L1014.7 -814.8 L1020.0 -825.0 L1026.8 -834.9 L1033.1 -842.2 L1037.6 -846.8 L1045.0 -852.9 L1050.4 -856.5 L1059.4 -861.2 L1066.0 -863.9 L1080.5 -868.3 L1092.7 -870.6 L1101.4 -871.6 L1110.7 -872.2 L1124.7 -872.3 L1132.8 -871.8 L1144.4 -870.2 L1151.6 -868.6 L1161.6 -865.2 L1167.8 -862.4 L1173.7 -859.1 L1179.3 -855.4 L1184.5 -851.3 L1189.5 -846.6 L1194.2 -841.4 L1200.6 -832.7 L1204.5 -826.4 L1208.1 -819.6 L1211.3 -812.2 L1214.1 -804.5 L1218.7 -787.4 L1221.2 -773.3 L1223.2 -752.7 L1223.6 -735.9 L1223.6 -430.6 L1206.6 -436.0 L1187.9 -440.6 L1167.4 -444.0 L1145.1 -446.2 L1121.0 -447.4 L1089.4 -447.5 L1057.9 -446.6 L1027.7 -444.7 L999.3 -441.9 L972.1 -438.1 L946.3 -433.5 L921.9 -427.8 L899.0 -421.2 L887.7 -417.4 L867.2 -409.4 L847.8 -400.3 L829.8 -390.2 L820.9 -384.5 L805.5 -373.2 L790.8 -360.8 L777.6 -347.9 L765.7 -334.4 L755.4 -320.6 L746.1 -305.8 L738.1 -290.3 L734.5 -281.9 L728.5 -265.5 L723.9 -248.5 L720.6 -231.0 L718.7 -213.3 L718.0 -194.6ZM1223.6 -106.0 L1216.1 -99.7 L1209.3 -94.6 L1194.8 -85.4 L1178.7 -77.3 L1162.7 -70.9 L1146.8 -66.2 L1130.8 -63.2 L1114.8 -61.7 L1098.9 -61.9 L1085.4 -63.4 L1072.7 -66.2 L1060.7 -70.3 L1053.1 -73.8 L1045.8 -77.8 L1038.8 -82.4 L1032.0 -87.5 L1022.4 -96.4 L1013.5 -106.7 L1005.6 -118.1 L1000.9 -126.4 L996.7 -135.4 L991.2 -149.9 L986.8 -165.9 L983.6 -183.2 L982.0 -195.6 L981.0 -208.6 L980.4 -229.2 L981.0 -250.7 L982.1 -264.2 L983.7 -277.1 L987.1 -295.4 L991.6 -312.3 L997.3 -327.8 L1004.1 -342.0 L1012.1 -355.0 L1021.1 -366.6 L1031.0 -376.8 L1038.2 -382.8 L1045.7 -388.1 L1053.8 -392.8 L1062.2 -396.9 L1071.2 -400.4 L1080.6 -403.2 L1090.6 -405.5 L1101.1 -407.1 L1117.8 -408.3 L1134.1 -408.3 L1147.8 -407.7 L1160.9 -406.6 L1173.4 -405.0 L1185.5 -403.0 L1197.0 -400.5 L1210.4 -396.9 L1223.6 -392.8ZM323.6 -1333.0 L323.6 -136.3 L322.4 -114.8 L319.6 -95.2 L315.4 -77.6 L312.7 -69.6 L308.1 -58.4 L304.5 -51.6 L298.6 -42.2 L291.9 -33.9 L284.5 -26.7 L276.5 -20.7 L267.8 -15.6 L258.3 -11.6 L248.0 -8.6 L236.8 -6.6 L224.7 -5.7 L206.0 -6.1 L192.7 -7.4 L180.5 -9.7 L169.4 -12.8 L159.4 -16.8 L153.3 -19.9 L147.7 -23.3 L140.0 -29.1 L135.3 -33.4 L130.9 -38.2 L125.0 -45.6 L121.5 -50.5 L117.1 -58.0 L113.6 -65.7 L111.0 -73.6 L108.7 -84.4 L108.0 -92.7 L107.9 -181.1 L107.4 -189.9 L106.4 -198.6 L103.6 -211.5 L101.3 -219.3 L98.3 -227.2 L92.7 -238.9 L88.3 -246.2 L83.7 -252.9 L78.1 -260.0 L69.3 -269.4 L62.4 -275.6 L55.5 -281.1 L48.2 -286.1 L40.7 -290.6 L32.8 -294.5 L20.9 -299.3 L12.3 -301.9 L3.1 -304.1 L-10.3 -306.2 L-20.1 -307.0 L-29.8 -307.2 L-40.3 -306.8 L-50.4 -305.5 L-59.8 -303.5 L-69.6 -300.4 L-78.5 -296.6 L-87.0 -291.9 L-97.2 -284.6 L-104.9 -277.6 L-111.3 -270.3 L-115.5 -264.3 L-120.5 -255.2 L-124.5 -245.8 L-127.6 -235.2 L-129.8 -224.1 L-131.2 -211.9 L-131.6 -199.4 L-130.9 -185.6 L-129.6 -175.7 L-126.6 -162.0 L-123.8 -152.7 L-120.2 -143.1 L-114.0 -129.6 L-108.9 -120.3 L-100.6 -107.0 L-94.0 -97.8 L-83.4 -84.7 L-75.5 -76.1 L-66.9 -67.7 L-57.9 -59.6 L-48.2 -51.7 L-37.8 -44.0 L-27.0 -36.8 L-10.1 -26.5 L14.9 -13.5 L34.8 -4.6 L49.1 1.2 L71.1 8.8 L86.8 13.3 L110.8 19.1 L127.7 22.5 L153.6 26.5 L171.8 28.7 L199.7 30.9 L219.1 31.9 L248.9 32.4 L278.2 31.9 L306.4 30.5 L333.5 28.0 L359.5 24.6 L372.3 22.5 L396.3 17.7 L419.5 11.8 L431.0 8.4 L452.2 1.1 L462.9 -3.1 L482.4 -11.9 L492.3 -16.9 L510.1 -27.1 L519.1 -33.0 L535.5 -44.9 L550.2 -57.5 L564.0 -71.2 L576.4 -85.8 L582.4 -93.8 L592.5 -109.2 L597.4 -117.9 L605.5 -134.6 L609.3 -143.9 L615.4 -161.8 L618.1 -171.7 L622.1 -190.7 L623.7 -201.1 L625.7 -221.3 L626.2 -232.2 L626.5 -1345.5 L627.7 -1350.0 L629.9 -1352.9 L635.5 -1356.2 L642.7 -1358.8 L650.8 -1360.8 L723.5 -1373.1 L737.1 -1376.6 L746.6 -1380.4 L750.7 -1383.2 L753.4 -1386.3 L755.2 -1390.3 L755.6 -1393.9 L754.8 -1398.7 L753.1 -1402.6 L750.3 -1406.0 L746.6 -1408.7 L743.5 -1410.1 L739.8 -1411.2 L731.6 -1412.0 L215.8 -1412.0 L209.5 -1411.1 L202.9 -1408.6 L198.4 -1405.4 L195.1 -1401.2 L193.6 -1397.9 L192.9 -1393.8 L193.0 -1390.2 L193.8 -1386.8 L195.3 -1383.7 L197.8 -1380.6 L200.8 -1378.1 L204.3 -1376.3 L210.4 -1374.1 L218.7 -1372.3 L305.7 -1359.9 L310.5 -1358.9 L315.8 -1356.7 L319.0 -1354.0 L321.4 -1349.3 L322.8 -1343.5Z"/><path fill="#A8492A" d="M3654.0 29.6 L3671.8 28.7 L3685.8 26.5 L3699.6 23.0 L3712.5 18.4 L3725.0 12.5 L3739.4 3.6 L3752.8 -6.7 L3762.8 -16.1 L3773.8 -28.6 L3783.7 -42.5 L3792.3 -57.6 L3798.0 -70.3 L3802.7 -83.7 L3806.7 -100.4 L3808.7 -114.7 L3809.6 -132.4 L3809.0 -146.8 L3806.7 -163.8 L3803.6 -177.4 L3798.1 -193.4 L3792.4 -206.2 L3783.9 -220.9 L3774.0 -234.7 L3764.9 -245.0 L3752.9 -256.4 L3742.0 -264.8 L3727.6 -273.8 L3715.1 -280.1 L3702.2 -285.0 L3685.8 -289.3 L3671.7 -291.5 L3654.1 -292.4 L3639.9 -291.8 L3623.2 -289.4 L3609.8 -286.0 L3594.3 -280.2 L3581.8 -274.0 L3567.6 -265.0 L3556.8 -256.6 L3544.8 -245.2 L3535.8 -234.9 L3526.0 -221.2 L3517.5 -206.2 L3511.8 -193.3 L3507.3 -180.4 L3503.3 -163.9 L3501.3 -149.9 L3500.4 -132.5 L3501.0 -117.9 L3503.2 -100.6 L3506.3 -86.8 L3511.7 -70.6 L3517.4 -57.7 L3525.7 -42.9 L3535.5 -29.0 L3544.4 -18.5 L3556.3 -7.0 L3567.0 1.5 L3581.1 10.7 L3593.5 17.1 L3609.1 23.0 L3622.6 26.5 L3639.5 29.0Z"/></svg>
